<?xml version="1.0" encoding="UTF-8"?>
<svg id="Camada_2" data-name="Camada 2" xmlns="http://www.w3.org/2000/svg" viewBox="0 0 1920 441.47">
  <defs>
    <style>
      .cls-1 {
        fill: #c1272d;
      }

      .cls-1, .cls-2 {
        stroke-width: 0px;
      }

      .cls-2 {
        fill: #1a1a1a;
      }
    </style>
  </defs>
  <g id="Camada_2-2" data-name="Camada 2">
    <g>
      <path class="cls-2" d="m485.59,0v348.98c0,45.05-36.52,81.58-81.58,81.58h0V118.68l-89.98,261.82c-10.29,29.95-38.47,50.06-70.15,50.06h0c-32.97,0-62.3-20.94-73.02-52.12L81.58,118.68v311.88H0V0h127.06l115.74,336.75L358.54,0h127.05Z"/>
      <path class="cls-1" d="m890.79,266.3c0,94.28-56.38,174.04-183.6,174.04s-183.6-79.75-183.6-174.04c0-125.33,76.77-174.04,183.6-174.04s183.6,48.71,183.6,174.04Zm-81.76.92c.46-77.7-57.68-97.58-101.83-97.58s-102.3,19.88-101.84,97.58c.41,69.82,50.68,95.74,101.84,95.74s101.43-25.92,101.83-95.74Z"/>
      <path class="cls-2" d="m1260.81,103.35v256.58c0,38.51-31.22,69.74-69.74,69.74h-11.84v-50.32c-38,39.41-82.32,62.13-137.9,62.13-63.32,0-106.83-32.53-106.83-131.1,0-38.4.66-85.68,1.37-125.3h-21.66s0,0,0,0c0-45.07,36.51-81.63,81.58-81.69l23.36-.03s-3.06,108.04-3.06,187.12c0,55.81,17.96,73.62,59.74,73.62,30.4,0,70.91-18.15,103.42-55.46V103.35s81.58,0,81.58,0Z"/>
      <path class="cls-2" d="m1390.58,147.3c27.59-37.2,71.52-49.98,105.32-53.96,25.61-3.02,48.1,16.98,48.1,42.77v53.6h-81.58v-12.9c-30.8,0-59.45,24.71-71.84,48.8v191.41c0,7.38-5.98,13.37-13.37,13.37h-68.21V104.06h81.58v43.23Z"/>
      <path class="cls-2" d="m1732.25,95.9c123.65,0,187.75,61.5,187.75,163.16v116.61c0,30.44-24.67,55.11-55.11,55.11h-26.47v-107.67c-22.86-14.91-64.55-35.31-121.58-35.31-37.05,0-71.14,10.84-71.14,38.37,0,40.45,83.94,48.38,138.01-8.11l47.79,51.96c-93.44,116.54-268.98,78.34-268.98-39.22,0-67.6,55.77-110.43,140.58-110.43,60.89,0,106.88,20.89,135.32,39v-.32c0-49.21-25.9-81.58-107.48-81.58-32.83,0-62.12,5.66-85.57,12.54-33.65,9.87-68.99-9.23-79.51-42.69l-3.47-11.03s83.73-40.41,169.85-40.41h0Z"/>
    </g>
  </g>
</svg>