<?xml version="1.0" encoding="UTF-8"?>
<svg id="Camada_2" data-name="Camada 2" xmlns="http://www.w3.org/2000/svg" viewBox="0 0 2075.25 1224.19">
  <defs>
    <style>
      .cls-1 {
        fill: #c1272d;
      }

      .cls-1, .cls-2 {
        stroke-width: 0px;
      }

      .cls-2 {
        fill: #1a1a1a;
      }
    </style>
  </defs>
  <path class="cls-2" d="m653.92,433.56v282.26c0,36.44-29.54,65.98-65.98,65.98h0v-252.25l-72.78,211.76c-8.33,24.23-31.12,40.49-56.73,40.49h0c-26.67,0-50.39-16.93-59.06-42.15l-72.21-210.1v252.25h-65.98v-348.24h102.76l93.61,272.37,93.62-272.37h102.76Z"/>
  <path class="cls-1" d="m981.65,648.95c0,76.26-45.6,140.76-148.49,140.76s-148.5-64.51-148.5-140.76c0-101.37,62.09-140.76,148.5-140.76s148.49,39.39,148.49,140.76Zm-66.13.74c.37-62.84-46.65-78.92-82.36-78.92s-82.74,16.08-82.37,78.92c.33,56.47,40.99,77.43,82.37,77.43s82.04-20.96,82.36-77.43Z"/>
  <path class="cls-2" d="m1280.92,517.15v207.53c0,31.15-25.25,56.4-56.4,56.4h-9.58v-40.7c-30.74,31.88-66.58,50.25-111.54,50.25-51.21,0-86.41-26.31-86.41-106.03,0-31.06.53-69.3,1.11-101.34h-17.52s0,0,0,0c0-36.46,29.53-66.02,65.98-66.07l18.89-.03s-2.47,87.38-2.47,151.34c0,45.14,14.53,59.55,48.32,59.55,24.58,0,57.35-14.68,83.65-44.85v-166.04s65.98,0,65.98,0Z"/>
  <path class="cls-2" d="m1385.88,552.7c22.32-30.09,57.85-40.42,85.18-43.64,20.71-2.44,38.91,13.74,38.91,34.59v43.35h-65.98v-10.43c-24.91,0-48.08,19.99-58.11,39.47v154.82c0,5.97-4.84,10.81-10.81,10.81h-55.17v-263.93h65.98v34.97Z"/>
  <path class="cls-2" d="m1662.22,511.13c100.01,0,151.86,49.74,151.86,131.96v94.31c0,24.62-19.96,44.57-44.57,44.57h-21.41v-87.08c-18.49-12.06-52.2-28.56-98.34-28.56-29.97,0-57.54,8.77-57.54,31.04,0,32.72,67.89,39.13,111.62-6.56l38.65,42.02c-75.58,94.26-217.56,63.37-217.56-31.72,0-54.68,45.1-89.32,113.7-89.32,49.25,0,86.45,16.9,109.45,31.54v-.25c0-39.8-20.95-65.98-86.93-65.98-26.56,0-50.24,4.58-69.21,10.14-27.22,7.98-55.8-7.47-64.31-34.53l-2.81-8.92s67.72-32.68,137.38-32.68h0Z"/>
</svg>